<svg xmlns="http://www.w3.org/2000/svg" viewBox="0 0 1600 1000" role="img" aria-labelledby="title desc">
  <title id="title">Jewellery category premium storefront scene</title>
  <desc id="desc">A premium black and gold jewellery showcase with a signature ring display.</desc>
  <defs>
    <linearGradient id="wall" x1="0" x2="1" y1="0" y2="1">
      <stop offset="0" stop-color="#F8F5EF"/>
      <stop offset="1" stop-color="#E7DDCA"/>
    </linearGradient>
    <linearGradient id="gold" x1="0" x2="1" y1="0" y2="1">
      <stop offset="0" stop-color="#F6E7B6"/>
      <stop offset=".42" stop-color="#C8A24A"/>
      <stop offset="1" stop-color="#8A6420"/>
    </linearGradient>
  </defs>
  <rect width="1600" height="1000" fill="url(#wall)"/>
  <rect y="704" width="1600" height="296" fill="#D9D4C8"/>
  <rect x="132" y="112" width="1265" height="625" rx="30" fill="#fff" stroke="#D9D4C8" stroke-width="5"/>
  <text x="662" y="186" fill="#11100E" font-family="Georgia, serif" font-size="44">Jewellery</text>
  <g transform="translate(245 268)">
    <rect width="330" height="410" rx="20" fill="#F2F2F2"/>
    <rect x="82" y="94" width="166" height="220" rx="18" fill="#11100E"/>
    <ellipse cx="165" cy="204" rx="72" ry="66" fill="none" stroke="url(#gold)" stroke-width="24"/>
    <circle cx="165" cy="120" r="34" fill="#F8F5EF" stroke="url(#gold)" stroke-width="10"/>
    <path d="M143 117l22-20 24 20-24 28z" fill="#FFFFFF" stroke="#D9D4C8" stroke-width="4"/>
    <rect x="80" y="342" width="170" height="14" rx="7" fill="url(#gold)"/>
  </g>
  <g transform="translate(680 268)">
    <rect width="330" height="410" rx="20" fill="#F2F2F2"/>
    <rect x="58" y="78" width="214" height="260" rx="20" fill="#171512"/>
    <path d="M105 252c40-95 92-154 156-178" fill="none" stroke="url(#gold)" stroke-width="12" stroke-linecap="round"/>
    <circle cx="113" cy="260" r="34" fill="#F8F5EF" stroke="url(#gold)" stroke-width="10"/>
    <circle cx="218" cy="112" r="26" fill="#fff" stroke="#C8A24A" stroke-width="8"/>
  </g>
  <g transform="translate(1115 268)">
    <rect width="230" height="410" rx="20" fill="#F2F2F2"/>
    <rect x="58" y="88" width="114" height="240" rx="18" fill="#11100E"/>
    <path d="M76 190c30 34 70 34 104 0" fill="none" stroke="url(#gold)" stroke-width="12" stroke-linecap="round"/>
    <circle cx="115" cy="128" r="30" fill="#fff" stroke="url(#gold)" stroke-width="9"/>
  </g>
  <rect x="224" y="768" width="430" height="18" rx="9" fill="#11100E"/>
  <rect x="780" y="768" width="345" height="18" rx="9" fill="#C8A24A"/>
</svg>
